<svg id="Layer_1" data-name="Layer 1" xmlns="http://www.w3.org/2000/svg" viewBox="0 0 397.09 397.04"><defs><style>.cls-1{fill:#672e91;}.cls-2{fill:#672f92;}.cls-3{fill:#683092;}</style></defs><title>Untitled-3</title><path class="cls-1" d="M422.43,105c109.91-.29,200.46,90,198.54,202.1C619.12,415.23,529.82,504,418.56,502c-108.06-2-196.68-91.28-194.62-202.4C225.95,192,314.07,104.83,422.43,105Zm0,20.66c-97.12-.09-176,77.92-177.85,174.32-1.87,99.59,77.61,179.63,174.45,181.34,99.71,1.76,179.7-77.94,181.21-174.87C601.85,206.27,520.87,125.51,422.47,125.66Z" transform="translate(-223.91 -105)"/><path class="cls-2" d="M420.79,448.23c0,6.91,0,6.91-6.93,6.55a149.74,149.74,0,0,1-138.79-119.2c-.86-4.19-.85-4.14,3.57-4.77,1.87-.26,3.69-.81,5.54-1.21,3-.65,3.69-.21,4.3,2.75A135.73,135.73,0,0,0,396,438.84a130,130,0,0,0,22.56,2.35c1.65,0,2.46.39,2.28,2.22C420.67,445,420.79,446.62,420.79,448.23Z" transform="translate(-223.91 -105)"/><path class="cls-2" d="M421.73,162.62a16.87,16.87,0,0,0,0-3.67c-.65-2.84.82-2.92,3-2.9,67.93.73,129.06,51,142.8,117.53.92,4.43.92,4.43-3.56,5.11-1.5.23-3,.39-4.5.62-4.57.73-4.57.74-5.57-3.88-11.16-51.33-53.69-92.88-105.34-103a134.87,134.87,0,0,0-23.66-2.63c-2.33,0-3.26-.6-3-3a41,41,0,0,0,0-4.25Z" transform="translate(-223.91 -105)"/><path class="cls-2" d="M281.24,303.77c-2.29.15-4.53-.65-6.78-.53s-2.43-.83-2.35-2.67c.57-14,2.56-27.72,7.2-40.92C298.25,205.73,335.69,172.3,391.25,159c2.63-.63,3.75.07,4.17,2.7a35.91,35.91,0,0,0,1.75,6.57c.93,2.56.31,3.64-2.47,4.18a129.37,129.37,0,0,0-56,25.5c-29.75,23.38-47.19,53.86-51.94,91.48a84.77,84.77,0,0,0-.88,11.31c0,2.62-.85,3.39-3.24,3A8.93,8.93,0,0,0,281.24,303.77Z" transform="translate(-223.91 -105)"/><path class="cls-2" d="M570.9,311.62c-2,66.73-52.09,126.37-117.47,139.87-4.16.86-4.23.79-5.29-3.4a45.41,45.41,0,0,0-1.85-6.53c-1-2.27.08-2.68,1.95-3a126.31,126.31,0,0,0,44.07-17.26Q546.38,387,556,323.66a125.48,125.48,0,0,0,1.14-14.7c.07-2.11.78-2.5,2.64-2.38a60.14,60.14,0,0,0,8.22.08c2.41-.18,3.26.65,2.88,3A12.4,12.4,0,0,0,570.9,311.62Z" transform="translate(-223.91 -105)"/><path class="cls-3" d="M423.81,411c-52.41,0-97.4-38.62-104.58-90.44C314,283,326,251.26,353.82,225.47c1.6-1.48,2.83-2.39,3.74.48.06.19.25.33.35.51.73,1.4,3.32,1.8,2.74,3.62-.41,1.28-2.16,2.12-3.26,3.21-28.24,27.92-38.26,61.38-27,99.41,11.34,38.28,38.09,61.5,77.34,68.74,53.76,9.92,105.37-28.09,113.13-82.33a97.85,97.85,0,0,0-80.66-110.66,100.81,100.81,0,0,0-13.25-1.25c-2.48-.08-3.25-.85-3.07-3.25.37-5.08.29-5.08,5.41-4.89,48.24,1.8,90.31,38.57,99,86.5,10.11,56-24.34,109.11-79.58,122.6A99.89,99.89,0,0,1,423.81,411Z" transform="translate(-223.91 -105)"/></svg>